<?xml version="1.0" encoding="UTF-8"?>
<!-- Nutriologos EasyEats · logotipo horizontal
     Aguacate: vectores originales de Ricardo Sansores, geometria intacta.
     Texto: Instrument Sans convertido a curvas. No requiere la fuente instalada.
     Verde oficial #00806A · Paleta C (SA-001) · Fondo transparente. -->
<svg xmlns="http://www.w3.org/2000/svg" viewBox="0 0 872 320" width="872" height="320" xmlns:c2pa="http://c2pa.org/manifest"><metadata><c2pa:manifest>AAAWgmp1bWIAAAAeanVtZGMycGEAEQAQgAAAqgA4m3EDYzJwYQAAABZcanVtYgAAAEdqdW1kYzJtYQARABCAAACqADibcQN1cm46YzJwYTo5ODUxMjZmYi05OGZmLTRmMmUtYTJkMS04NTc4NmM0ZWU1OWYAAAADl2p1bWIAAAApanVtZGMyYXMAEQAQgAAAqgA4m3EDYzJwYS5hc3NlcnRpb25zAAAAALxqdW1iAAAARGp1bWRjYm9yABEAEIAAAKoAOJtxE2MycGEuaW5ncmVkaWVudC52MwAAAAAYYzJzaHKTjz6115z8Ie2xO5VP48YAAABwY2JvcqNpZGM6Zm9ybWF0bWltYWdlL3N2Zyt4bWxqaW5zdGFuY2VJRHgseG1wOmlpZDo5MTAyZGY2YS04MzNmLTQxYzctYmVjNi0zNDdiYTdjOTU0YTZscmVsYXRpb25zaGlwaHBhcmVudE9mAAAB4mp1bWIAAABBanVtZGNib3IAEQAQgAAAqgA4m3ETYzJwYS5hY3Rpb25zLnYyAAAAABhjMnNoFKHWbZ+1lshAI7dwKbwdBgAAAZljYm9yomdhY3Rpb25zgqJmYWN0aW9ua2MycGEub3BlbmVkanBhcmFtZXRlcnOha2luZ3JlZGllbnRzgaJjdXJseC1zZWxmI2p1bWJmPWMycGEuYXNzZXJ0aW9ucy9jMnBhLmluZ3JlZGllbnQudjNkaGFzaFggXAhx3dYQdfO4G1YcoQp72+2hyIFVFDMRf1BxnclZgPukZmFjdGlvbngdY29tLmFudGhyb3BpYy5jbGF1ZGUucHJvdmlkZWRqcGFyYW1ldGVyc6F4H2NvbS5hbnRocm9waWMub3JpZ2luLWNvbmZpZGVuY2VndW5rbm93bmtkZXNjcmlwdGlvbnhmQ2xhdWRlIHByb3ZpZGVkIHRoaXMgZmlsZSBhdCB0aGUgcmVxdWVzdCBvZiBhIHVzZXIgYW5kIG1heSBoYXZlIGNyZWF0ZWQgb3IgbW9kaWZpZWQgdGhlIGZpbGUgY29udGVudHMubXNvZnR3YXJlQWdlbnShZG5hbWVmQ2xhdWRlcmFsbEFjdGlvbnNJbmNsdWRlZPUAAADIanVtYgAAAEBqdW1kY2JvcgARABCAAACqADibcRNjMnBhLmhhc2guZGF0YQAAAAAYYzJzaCBYlzG0m3KD7zO7fo59lK0AAACAY2JvcqVjYWxnZnNoYTI1NmNwYWRMAAAAAAAAAAAAAAAAZGhhc2hYIKJ3cx2gVAizZI1uzRb0ns6xwvGapUJC9//5c1OifR1bZG5hbWVuanVtYmYgbWFuaWZlc3RqZXhjbHVzaW9uc4GiZXN0YXJ0GQHWZmxlbmd0aBkeBAAAAj5qdW1iAAAAJ2p1bWRjMmNsABEAEIAAAKoAOJtxA2MycGEuY2xhaW0udjIAAAACD2Nib3KlY2FsZ2ZzaGEyNTZpc2lnbmF0dXJleE1zZWxmI2p1bWJmPS9jMnBhL3VybjpjMnBhOjk4NTEyNmZiLTk4ZmYtNGYyZS1hMmQxLTg1Nzg2YzRlZTU5Zi9jMnBhLnNpZ25hdHVyZWppbnN0YW5jZUlEeCx4bXA6aWlkOjdkY2IxZDg4LTA3YzUtNGM4NC04ODMwLWYwYTVmNGU5ZTNiM3JjcmVhdGVkX2Fzc2VydGlvbnODomN1cmx4LXNlbGYjanVtYmY9YzJwYS5hc3NlcnRpb25zL2MycGEuaW5ncmVkaWVudC52M2RoYXNoWCBcCHHd1hB187gbVhyhCnvb7aHIgVUUMxF/UHGdyVmA+6JjdXJseCpzZWxmI2p1bWJmPWMycGEuYXNzZXJ0aW9ucy9jMnBhLmFjdGlvbnMudjJkaGFzaFggby5uJLGCWNHprxmQE+2HFYG4sORBr9ibr1TlbgE3YNSiY3VybHgpc2VsZiNqdW1iZj1jMnBhLmFzc2VydGlvbnMvYzJwYS5oYXNoLmRhdGFkaGFzaFggRr8GN2rt5thqY/HjhUS6t/NYOPSOlTSGrmQgBH4fNvd0Y2xhaW1fZ2VuZXJhdG9yX2luZm+jZG5hbWVvQW50aHJvcGljIEZpbGVzZ3ZlcnNpb25lMS4wLjBrc3BlY1ZlcnNpb25lMi40LjAAABA4anVtYgAAAChqdW1kYzJjcwARABCAAACqADibcQNjMnBhLnNpZ25hdHVyZQAAABAIY2JvctKEWQISogEmGCFZAgowggIGMIIBjaADAgECAhRA5aAK7sI50L64g/oGQgU9Z1UTADAKBggqhkjOPQQDAzBJMRcwFQYDVQQKEw5BbnRocm9waWMsIFBCQzEuMCwGA1UEAxMlQW50aHJvcGljIENvbnRlbnQgQ3JlZGVudGlhbHMgUm9vdCBDQTAeFw0yNjA4MDcxODQzNTZaFw0yODA4MDYxOTQzNTZaMEQxFzAVBgNVBAoTDkFudGhyb3BpYywgUEJDMSkwJwYDVQQDEyBBbnRocm9waWMgQ2xhdWRlIENvbnRlbnQgU2lnbmluZzBZMBMGByqGSM49AgEGCCqGSM49AwEHA0IABJh6CmvLUBgFFNU0vUKlOVtE6djd17L5SuwX0LemFisBM3dkd/3cyjxFA3Qo5S46fX0/ihY0VZ7mfb9KF703t5OjWDBWMA4GA1UdDwEB/wQEAwIHgDAVBgNVHSUEDjAMBgorBgEEAYPoXgIBMAwGA1UdEwEB/wQCMAAwHwYDVR0jBBgwFoAUzlHiBIFOZFsj+OPEz5o+nMHXXMIwCgYIKoZIzj0EAwMDZwAwZAIwMXMdFJ4BetLLVY7ORuE9noqbbAZOZn/aArXyTwFAZfKrPzxF2vPoJNf1+UCdg1XGAjBwX1zd9WGqYkqmL5SFqw1QySjr1zJfpJM9+1rdDwSPLMOPOjKuiXjoU/pUUeG9RwmhY3BhZFkNngAAAAAAAAAAAAAAAAAAAAAAAAAAAAAAAAAAAAAAAAAAAAAAAAAAAAAAAAAAAAAAAAAAAAAAAAAAAAAAAAAAAAAAAAAAAAAAAAAAAAAAAAAAAAAAAAAAAAAAAAAAAAAAAAAAAAAAAAAAAAAAAAAAAAAAAAAAAAAAAAAAAAAAAAAAAAAAAAAAAAAAAAAAAAAAAAAAAAAAAAAAAAAAAAAAAAAAAAAAAAAAAAAAAAAAAAAAAAAAAAAAAAAAAAAAAAAAAAAAAAAAAAAAAAAAAAAAAAAAAAAAAAAAAAAAAAAAAAAAAAAAAAAAAAAAAAAAAAAAAAAAAAAAAAAAAAAAAAAAAAAAAAAAAAAAAAAAAAAAAAAAAAAAAAAAAAAAAAAAAAAAAAAAAAAAAAAAAAAAAAAAAAAAAAAAAAAAAAAAAAAAAAAAAAAAAAAAAAAAAAAAAAAAAAAAAAAAAAAAAAAAAAAAAAAAAAAAAAAAAAAAAAAAAAAAAAAAAAAAAAAAAAAAAAAAAAAAAAAAAAAAAAAAAAAAAAAAAAAAAAAAAAAAAAAAAAAAAAAAAAAAAAAAAAAAAAAAAAAAAAAAAAAAAAAAAAAAAAAAAAAAAAAAAAAAAAAAAAAAAAAAAAAAAAAAAAAAAAAAAAAAAAAAAAAAAAAAAAAAAAAAAAAAAAAAAAAAAAAAAAAAAAAAAAAAAAAAAAAAAAAAAAAAAAAAAAAAAAAAAAAAAAAAAAAAAAAAAAAAAAAAAAAAAAAAAAAAAAAAAAAAAAAAAAAAAAAAAAAAAAAAAAAAAAAAAAAAAAAAAAAAAAAAAAAAAAAAAAAAAAAAAAAAAAAAAAAAAAAAAAAAAAAAAAAAAAAAAAAAAAAAAAAAAAAAAAAAAAAAAAAAAAAAAAAAAAAAAAAAAAAAAAAAAAAAAAAAAAAAAAAAAAAAAAAAAAAAAAAAAAAAAAAAAAAAAAAAAAAAAAAAAAAAAAAAAAAAAAAAAAAAAAAAAAAAAAAAAAAAAAAAAAAAAAAAAAAAAAAAAAAAAAAAAAAAAAAAAAAAAAAAAAAAAAAAAAAAAAAAAAAAAAAAAAAAAAAAAAAAAAAAAAAAAAAAAAAAAAAAAAAAAAAAAAAAAAAAAAAAAAAAAAAAAAAAAAAAAAAAAAAAAAAAAAAAAAAAAAAAAAAAAAAAAAAAAAAAAAAAAAAAAAAAAAAAAAAAAAAAAAAAAAAAAAAAAAAAAAAAAAAAAAAAAAAAAAAAAAAAAAAAAAAAAAAAAAAAAAAAAAAAAAAAAAAAAAAAAAAAAAAAAAAAAAAAAAAAAAAAAAAAAAAAAAAAAAAAAAAAAAAAAAAAAAAAAAAAAAAAAAAAAAAAAAAAAAAAAAAAAAAAAAAAAAAAAAAAAAAAAAAAAAAAAAAAAAAAAAAAAAAAAAAAAAAAAAAAAAAAAAAAAAAAAAAAAAAAAAAAAAAAAAAAAAAAAAAAAAAAAAAAAAAAAAAAAAAAAAAAAAAAAAAAAAAAAAAAAAAAAAAAAAAAAAAAAAAAAAAAAAAAAAAAAAAAAAAAAAAAAAAAAAAAAAAAAAAAAAAAAAAAAAAAAAAAAAAAAAAAAAAAAAAAAAAAAAAAAAAAAAAAAAAAAAAAAAAAAAAAAAAAAAAAAAAAAAAAAAAAAAAAAAAAAAAAAAAAAAAAAAAAAAAAAAAAAAAAAAAAAAAAAAAAAAAAAAAAAAAAAAAAAAAAAAAAAAAAAAAAAAAAAAAAAAAAAAAAAAAAAAAAAAAAAAAAAAAAAAAAAAAAAAAAAAAAAAAAAAAAAAAAAAAAAAAAAAAAAAAAAAAAAAAAAAAAAAAAAAAAAAAAAAAAAAAAAAAAAAAAAAAAAAAAAAAAAAAAAAAAAAAAAAAAAAAAAAAAAAAAAAAAAAAAAAAAAAAAAAAAAAAAAAAAAAAAAAAAAAAAAAAAAAAAAAAAAAAAAAAAAAAAAAAAAAAAAAAAAAAAAAAAAAAAAAAAAAAAAAAAAAAAAAAAAAAAAAAAAAAAAAAAAAAAAAAAAAAAAAAAAAAAAAAAAAAAAAAAAAAAAAAAAAAAAAAAAAAAAAAAAAAAAAAAAAAAAAAAAAAAAAAAAAAAAAAAAAAAAAAAAAAAAAAAAAAAAAAAAAAAAAAAAAAAAAAAAAAAAAAAAAAAAAAAAAAAAAAAAAAAAAAAAAAAAAAAAAAAAAAAAAAAAAAAAAAAAAAAAAAAAAAAAAAAAAAAAAAAAAAAAAAAAAAAAAAAAAAAAAAAAAAAAAAAAAAAAAAAAAAAAAAAAAAAAAAAAAAAAAAAAAAAAAAAAAAAAAAAAAAAAAAAAAAAAAAAAAAAAAAAAAAAAAAAAAAAAAAAAAAAAAAAAAAAAAAAAAAAAAAAAAAAAAAAAAAAAAAAAAAAAAAAAAAAAAAAAAAAAAAAAAAAAAAAAAAAAAAAAAAAAAAAAAAAAAAAAAAAAAAAAAAAAAAAAAAAAAAAAAAAAAAAAAAAAAAAAAAAAAAAAAAAAAAAAAAAAAAAAAAAAAAAAAAAAAAAAAAAAAAAAAAAAAAAAAAAAAAAAAAAAAAAAAAAAAAAAAAAAAAAAAAAAAAAAAAAAAAAAAAAAAAAAAAAAAAAAAAAAAAAAAAAAAAAAAAAAAAAAAAAAAAAAAAAAAAAAAAAAAAAAAAAAAAAAAAAAAAAAAAAAAAAAAAAAAAAAAAAAAAAAAAAAAAAAAAAAAAAAAAAAAAAAAAAAAAAAAAAAAAAAAAAAAAAAAAAAAAAAAAAAAAAAAAAAAAAAAAAAAAAAAAAAAAAAAAAAAAAAAAAAAAAAAAAAAAAAAAAAAAAAAAAAAAAAAAAAAAAAAAAAAAAAAAAAAAAAAAAAAAAAAAAAAAAAAAAAAAAAAAAAAAAAAAAAAAAAAAAAAAAAAAAAAAAAAAAAAAAAAAAAAAAAAAAAAAAAAAAAAAAAAAAAAAAAAAAAAAAAAAAAAAAAAAAAAAAAAAAAAAAAAAAAAAAAAAAAAAAAAAAAAAAAAAAAAAAAAAAAAAAAAAAAAAAAAAAAAAAAAAAAAAAAAAAAAAAAAAAAAAAAAAAAAAAAAAAAAAAAAAAAAAAAAAAAAAAAAAAAAAAAAAAAAAAAAAAAAAAAAAAAAAAAAAAAAAAAAAAAAAAAAAAAAAAAAAAAAAAAAAAAAAAAAAAAAAAAAAAAAAAAAAAAAAAAAAAAAAAAAAAAAAAAAAAAAAAAAAAAAAAAAAAAAAAAAAAAAAAAAAAAAAAAAAAAAAAAAAAAAAAAAAAAAAAAAAAAAAAAAAAAAAAAAAAAAAAAAAAAAAAAAAAAAAAAAAAAAAAAAAAAAAAAAAAAAAAAAAAAAAAAAAAAAAAAAAAAAAAAAAAAAAAAAAAAAAAAAAAAAAAAAAAAAAAAAAAAAAAAAAAAAAAAAAAAAAAAAAAAAAAAAAAAAAAAAAAAAAAAAAAAAAAAAAAAAAAAAAAAAAAAAAAAAAAAAAAAAAAAAAAAAAAAAAAAAAAAAAAAAAAAAAAAAAAAAAAAAAAAAAAAAAAAAAAAAAAAAAAAAAAAAAAAAAAAAAAAAAAAAAAAAAAAAAAAAAAAAAAAAAAAAAAAAAAAAAAAAAAAAAAAAAAAAAAAAAAAAAAAAAAAAAAAAAAAAAAAAAAAAAAAAAAAAAAAAAAAAAAAAAAAAAAAAAAAAAAAAAAAAAAAAAAAAAAAAAAAAAAAAAAAAAAAAAAAAAAAAAAAAAAAAAAAAAAAAAAAAAAAAAAAAAAAAAAAAAAAAAAAAAAAAAAAAAAAAAAAAAAAAAAAAAAAAAAAAAAAAAAAAAAAAAAAAAAAAAAAAAAAAAAAAAAAAAAAAAAAAAAAAAAAAAAAAAAAAAAAAAAAAAAAAAAAAAAAAAAAAAAAAAAAAAAAAAAAAAAAAAAAAAAAAAAAAAAAAAAAAAAAAAAAAAAAAAAAAAAAAAAAAAAAAAAAAAAAAAAAAAAAAAAAAAAAAAAAAAAAAAAAAAAAAAAAAAAAAAAAAAAAAAAAAAAAAAAAAAAAAAAAAAAAAAAAAAAAAAAAAAAAAAAAAAAAAAAAAAAAAAAAAAAAAAAAAAAAAAAAAAAAAAAAAAAAAAAAAAAAAAAAAAAAAAAAAAAAAAAAAAAAAAAAAAAAAAAAAAAAAAAAAAAAAAAAAAAAAAAAAAAAAAAAAAAAAAAAAAAAAAAAAAAAAAAAAAAAAAAAAAAAAAAAAAAAAAAAAAAAAAAAAAAAAAAAAAAAAAAAAAAAAAAAAAAAAAAAAAAAAAAAAAAAAAAAAAAAAAAAAAAAAAAAAAAAAAAAAAAAAAAAAAAAAAAAAAAAAAAAAAAAAAAAAAAAAAAAAAAAAAAAAAAAAAAAAAAAAAAAAAAAAAAAAAAAAAAAAAAAAAAAAAAAAAAAAAAAAAAAAAAAAAAAAAAAAAAAAAAAAAAAAAAAAAAAAAAAAAAAAAAAAAAAAAAAAAAAAAAAAAAAAAAAAAAAAAAAAAAAAAAAAAAAAAAAAAAAAAAAAAAAAAAAAAAAAAAAAAAAAAAAAAAAAAAAAAAAAAAAAAAAAAAAAAAAAAAAAAAAAAAAAAAAAAAAAAAAAAAAAAAAAAAAAAAAAAAAAAAAAAAAAAAAAAAAAAAAAAAAAAAAAAAAAAAAAAAAAAAAAAAAAAAAAAAAAAAAAAAAAAAAAAAAAAAAAAAAPZYQEE63V4f/Jo4V4eGmKGGH46mKnkfhqr8HqMRmgYtJEwpu4R/vQ+8qQUhVZS1t5fwHt0xvS2rxM29hHodu7g7kAI=</c2pa:manifest></metadata>
  <g transform="translate(26,50) scale(0.806391) translate(0.15,-65.66)">
    <path fill="#00806A" fill-rule="nonzero" d="M 159.613281 93.824219 C 123.78125 104.074219 88.988281 119.945312 53.246094 142.34375 C 27.230469 158.648438 10.949219 184.429688 7.410156 214.9375 C 3.851562 245.617188 13.867188 276.210938 34.230469 296.796875 C 53.699219 316.332031 79.195312 327.039062 106.167969 327.039062 C 106.617188 327.039062 107.074219 327.035156 107.527344 327.03125 C 134.847656 326.667969 160.417969 315.328125 179.527344 295.101562 C 199.011719 274.472656 210.050781 249.492188 220.554688 223.570312 C 222.628906 218.453125 224.957031 213.503906 227.425781 208.265625 C 233.335938 195.71875 239.449219 182.742188 241.578125 167.695312 C 244.90625 144.269531 236.742188 121.445312 219.742188 106.640625 C 208.035156 96.445312 193.59375 91.128906 178.433594 91.128906 C 172.234375 91.128906 165.914062 92.015625 159.613281 93.824219 M 45.222656 285.886719 C 28.410156 268.890625 19.816406 242.386719 22.792969 216.722656 C 25.78125 190.980469 39.519531 169.222656 61.472656 155.464844 C 95.960938 133.851562 129.457031 118.558594 163.875 108.714844 C 168.722656 107.324219 173.574219 106.640625 178.328125 106.640625 C 189.835938 106.640625 200.753906 110.640625 209.570312 118.320312 C 222.597656 129.664062 228.832031 147.308594 226.246094 165.519531 L 226.242188 165.523438 C 224.441406 178.257812 219.085938 189.628906 213.414062 201.664062 C 210.96875 206.863281 208.433594 212.238281 206.199219 217.753906 C 196.273438 242.253906 185.902344 265.796875 168.269531 284.464844 C 152.0625 301.617188 130.417969 311.238281 107.320312 311.546875 C 106.980469 311.550781 106.644531 311.550781 106.308594 311.550781 C 83.453125 311.550781 61.769531 302.492188 45.222656 285.886719 "/>
    <path fill="#04302A" fill-rule="nonzero" d="M 106.84375 212.214844 C 97.144531 212.214844 89.285156 204.355469 89.285156 194.660156 C 89.285156 184.960938 97.144531 177.101562 106.84375 177.101562 C 116.539062 177.101562 124.402344 184.960938 124.402344 194.660156 C 124.402344 204.355469 116.539062 212.214844 106.84375 212.214844 M 109.523438 169.660156 C 77.800781 169.660156 52.085938 195.375 52.085938 227.097656 C 52.085938 258.820312 77.800781 284.535156 109.523438 284.535156 C 141.242188 284.535156 166.960938 258.820312 166.960938 227.097656 C 166.960938 195.375 141.242188 169.660156 109.523438 169.660156 "/>
    <path fill="#04302A" fill-rule="nonzero" d="M 286.71875 82.679688 C 278.382812 75.617188 266.632812 73.039062 255.601562 76.972656 C 244.570312 80.90625 237.101562 90.335938 235.121094 101.082031 C 243.453125 108.148438 255.207031 110.726562 266.238281 106.792969 C 277.269531 102.859375 284.738281 93.425781 286.71875 82.679688 "/>
    <path fill="#04302A" fill-rule="nonzero" d="M 226.839844 69.660156 C 222.472656 72.90625 219.890625 78.316406 220.554688 84.113281 C 221.214844 89.910156 224.949219 94.601562 229.9375 96.777344 C 234.308594 93.53125 236.886719 88.121094 236.226562 82.324219 C 235.5625 76.527344 231.832031 71.835938 226.839844 69.660156 "/>
  </g>
  <g id="logotipo">
    <g fill="#04302A" transform="translate(296.55,190.00) scale(0.132000,-0.132000)"><path transform="translate(0.00,0)" d="M50 0V720H204V0ZM122 0V118H586V0ZM122 310V426H551V310ZM122 602V720H574V602Z"/><path transform="translate(598.00,0)" d="M381 0Q375 22 372.5 47.0Q370 72 370 105H366V346Q366 377 345.5 394.5Q325 412 285 412Q247 412 224.5 399.0Q202 386 195 361H52Q62 430 123.0 475.0Q184 520 290 520Q400 520 458.0 471.0Q516 422 516 330V105Q516 80 519.5 54.5Q523 29 531 0ZM203 -10Q127 -10 82.0 28.5Q37 67 37 131Q37 202 90.5 245.5Q144 289 240 302L389 323V236L265 217Q225 211 206.0 195.0Q187 179 187 151Q187 126 205.0 113.0Q223 100 253 100Q300 100 333.0 125.5Q366 151 366 185L380 105Q358 48 313.0 19.0Q268 -10 203 -10Z"/><path transform="translate(1141.00,0)" d="M266 -10Q154 -10 88.0 35.0Q22 80 16 159H150Q155 125 184.5 107.5Q214 90 266 90Q313 90 334.5 103.5Q356 117 356 142Q356 161 343.5 171.5Q331 182 298 189L216 206Q125 225 82.0 263.5Q39 302 39 363Q39 437 96.0 478.5Q153 520 255 520Q356 520 416.0 479.5Q476 439 482 367H348Q344 393 320.0 406.5Q296 420 252 420Q212 420 192.5 408.5Q173 397 173 376Q173 358 189.0 347.5Q205 337 242 329L334 310Q411 294 450.5 250.5Q490 207 490 148Q490 73 431.5 31.5Q373 -10 266 -10Z"/><path transform="translate(1617.00,0)" d="M86 -205 227 107 253 150 385 510H545L236 -205ZM194 10 -2 510H160L321 54Z"/><path transform="translate(2132.00,0)" d="M50 0V720H204V0ZM122 0V118H586V0ZM122 310V426H551V310ZM122 602V720H574V602Z"/><path transform="translate(2730.00,0)" d="M381 0Q375 22 372.5 47.0Q370 72 370 105H366V346Q366 377 345.5 394.5Q325 412 285 412Q247 412 224.5 399.0Q202 386 195 361H52Q62 430 123.0 475.0Q184 520 290 520Q400 520 458.0 471.0Q516 422 516 330V105Q516 80 519.5 54.5Q523 29 531 0ZM203 -10Q127 -10 82.0 28.5Q37 67 37 131Q37 202 90.5 245.5Q144 289 240 302L389 323V236L265 217Q225 211 206.0 195.0Q187 179 187 151Q187 126 205.0 113.0Q223 100 253 100Q300 100 333.0 125.5Q366 151 366 185L380 105Q358 48 313.0 19.0Q268 -10 203 -10Z"/><path transform="translate(3273.00,0)" d="M302 -11Q204 -11 156.5 36.5Q109 84 109 181V624L259 680V176Q259 142 278.0 125.0Q297 108 337 108Q352 108 365.0 111.0Q378 114 391 118V4Q378 -3 354.5 -7.0Q331 -11 302 -11ZM14 396V510H391V396Z"/><path transform="translate(3666.00,0)" d="M266 -10Q154 -10 88.0 35.0Q22 80 16 159H150Q155 125 184.5 107.5Q214 90 266 90Q313 90 334.5 103.5Q356 117 356 142Q356 161 343.5 171.5Q331 182 298 189L216 206Q125 225 82.0 263.5Q39 302 39 363Q39 437 96.0 478.5Q153 520 255 520Q356 520 416.0 479.5Q476 439 482 367H348Q344 393 320.0 406.5Q296 420 252 420Q212 420 192.5 408.5Q173 397 173 376Q173 358 189.0 347.5Q205 337 242 329L334 310Q411 294 450.5 250.5Q490 207 490 148Q490 73 431.5 31.5Q373 -10 266 -10Z"/></g>
    <g fill="#6B807B" transform="translate(298.55,252.00) scale(0.020000,-0.020000)"><path transform="translate(0.00,0)" d="M74 0V720H197L579 104L555 99V720H657V0H534L152 616L176 621V0Z"/><path transform="translate(1091.00,0)" d="M353 -10Q215 -10 141.0 71.0Q67 152 67 302V720H173V290Q173 187 220.0 133.5Q267 80 353 80Q441 80 488.0 133.0Q535 186 535 290V720H641V300Q641 152 566.5 71.0Q492 -10 353 -10Z"/><path transform="translate(2159.00,0)" d="M275 0V633H32V720H624V633H381V0Z"/><path transform="translate(3175.00,0)" d="M73 0V720H357Q435 720 490.0 694.5Q545 669 575.0 623.5Q605 578 605 516Q605 454 575.0 408.0Q545 362 490.0 336.0Q435 310 357 310H153V396H354Q426 396 463.5 427.5Q501 459 501 515Q501 571 464.0 602.0Q427 633 354 633H179V0ZM489 0 138 363H267L641 0Z"/><path transform="translate(4195.00,0)" d="M74 0V720H180V0Z"/><path transform="translate(4809.00,0)" d="M395 -10Q318 -10 254.0 17.5Q190 45 143.0 95.0Q96 145 69.5 213.0Q43 281 43 363Q43 471 88.0 554.0Q133 637 212.5 683.5Q292 730 394 730Q498 730 577.0 683.5Q656 637 701.5 554.0Q747 471 747 362Q747 281 720.5 212.5Q694 144 647.0 94.5Q600 45 535.5 17.5Q471 -10 395 -10ZM394 80Q466 80 521.0 116.5Q576 153 607.5 217.0Q639 281 639 364Q639 446 608.0 508.5Q577 571 522.0 605.5Q467 640 394 640Q321 640 266.5 605.5Q212 571 181.5 509.0Q151 447 151 364Q151 280 182.0 216.0Q213 152 267.5 116.0Q322 80 394 80ZM405 793H310L418 950H566Z"/><path transform="translate(5959.00,0)" d="M74 0V720H180V0ZM126 0V87H542V0Z"/><path transform="translate(6908.00,0)" d="M395 -10Q318 -10 254.0 17.5Q190 45 143.0 95.0Q96 145 69.5 213.0Q43 281 43 363Q43 471 88.0 554.0Q133 637 212.5 683.5Q292 730 394 730Q498 730 577.0 683.5Q656 637 701.5 554.0Q747 471 747 362Q747 281 720.5 212.5Q694 144 647.0 94.5Q600 45 535.5 17.5Q471 -10 395 -10ZM394 80Q466 80 521.0 116.5Q576 153 607.5 217.0Q639 281 639 364Q639 446 608.0 508.5Q577 571 522.0 605.5Q467 640 394 640Q321 640 266.5 605.5Q212 571 181.5 509.0Q151 447 151 364Q151 280 182.0 216.0Q213 152 267.5 116.0Q322 80 394 80Z"/><path transform="translate(8058.00,0)" d="M409 -10Q296 -10 214.0 35.5Q132 81 87.5 163.0Q43 245 43 356Q43 466 87.5 550.5Q132 635 211.0 682.5Q290 730 393 730Q475 730 541.5 699.5Q608 669 650.5 615.0Q693 561 701 490H595Q585 559 531.0 599.5Q477 640 396 640Q322 640 267.0 605.0Q212 570 181.5 507.0Q151 444 151 358Q151 271 182.0 208.5Q213 146 272.5 112.5Q332 79 416 79Q476 79 522.0 96.0Q568 113 602 146L705 107Q649 49 576.0 19.5Q503 -10 409 -10ZM599 107V328L630 297H415V385H705V107Z"/><path transform="translate(9182.00,0)" d="M395 -10Q318 -10 254.0 17.5Q190 45 143.0 95.0Q96 145 69.5 213.0Q43 281 43 363Q43 471 88.0 554.0Q133 637 212.5 683.5Q292 730 394 730Q498 730 577.0 683.5Q656 637 701.5 554.0Q747 471 747 362Q747 281 720.5 212.5Q694 144 647.0 94.5Q600 45 535.5 17.5Q471 -10 395 -10ZM394 80Q466 80 521.0 116.5Q576 153 607.5 217.0Q639 281 639 364Q639 446 608.0 508.5Q577 571 522.0 605.5Q467 640 394 640Q321 640 266.5 605.5Q212 571 181.5 509.0Q151 447 151 364Q151 280 182.0 216.0Q213 152 267.5 116.0Q322 80 394 80Z"/><path transform="translate(10332.00,0)" d="M335 -9Q205 -9 127.0 53.0Q49 115 36 230H139Q148 155 199.0 116.0Q250 77 337 77Q410 77 447.5 104.0Q485 131 485 181Q485 226 460.0 252.5Q435 279 381 296L256 336Q160 367 115.0 414.0Q70 461 70 533Q70 594 100.5 638.0Q131 682 186.5 706.5Q242 731 316 731Q430 731 498.5 673.5Q567 616 577 514H474Q462 582 422.0 613.5Q382 645 312 645Q246 645 209.0 619.0Q172 593 172 546Q172 508 196.5 482.5Q221 457 278 439L409 397Q500 368 543.5 318.0Q587 268 587 192Q587 96 521.0 43.5Q455 -9 335 -9Z"/></g>
  </g>
</svg>
